ffmpeg started on 2025-07-06 at 18:21:13
Report written to "D:\Convert\FFMetrics\reports\ssim_report-6.txt"
Log level: 32
Command line:
ffmpeg -hide_banner -nostdin -i "G:\\\xc0\xed\xe8\xec\xe5\\\xce\xed\xe3\xee\xe8\xed\xe3\xe8\\!_37_\xc7\xe8\xec\xe0_2025\\JamClub\\\xc3\xee\xeb\xf3\xe1\xe0\xff \xf8\xea\xe0\xf2\xf3\xeb\xea\xe0\\JamClub_Ao_no_Hako_23_1080p_HEVC.mkv" -i "G:\\\xc0\xed\xe8\xec\xe5\\\xce\xed\xe3\xee\xe8\xed\xe3\xe8\\!_37_\xc7\xe8\xec\xe0_2025\\JamClub\\\xc3\xee\xeb\xf3\xe1\xe0\xff \xf8\xea\xe0\xf2\xf3\xeb\xea\xe0\\JamClub_Ao_no_Hako_23_1080p.mp4" -lavfi "[0:v]settb=AVTB,setpts=PTS-STARTPTS,format=pix_fmts=yuv420p10,fps=24000/1001,scale=1920:1080:flags=bicubic[main];[1:v]settb=AVTB,setpts=PTS-STARTPTS,format=pix_fmts=yuv420p,fps=24000/1001,scale=1920:1080:flags=bicubic[ref];[main][ref]ssim=eof_action=endall:stats_file='D\\:/Convert/FFMetrics/logs/ssim_logfile-6.txt'" -f null -
Input #0, matroska,webm, from 'G:\Аниме\Онгоинги\!_37_Зима_2025\JamClub\Голубая шкатулка\JamClub_Ao_no_Hako_23_1080p_HEVC.mkv':
  Metadata:
    COMPATIBLE_BRANDS: isomiso2avc1mp41
    MAJOR_BRAND     : isom
    MINOR_VERSION   : 512
    ENCODER         : Lavf61.7.100
  Duration: 00:23:59.25, start: -0.001000, bitrate: 1231 kb/s
  Stream #0:0: Video: hevc (Main 10), yuv420p10le(tv, bt709, progressive), 1920x1080 [SAR 1:1 DAR 16:9], 23.98 fps, 23.98 tbr, 1k tbn (default)
      Metadata:
        HANDLER_NAME    : VideoHandler
        VENDOR_ID       : [0][0][0][0]
        ENCODER         : Lavc61.19.100 libx265
        BPS             : 1034907
        DURATION        : 00:23:59.187708333
        NUMBER_OF_FRAMES: 34507
        NUMBER_OF_BYTES : 186178107
        _STATISTICS_WRITING_APP: mkvpropedit v66.0.0 ('Josie') 64-bit
        _STATISTICS_WRITING_DATE_UTC: 2025-07-06 11:15:00
        _STATISTICS_TAGS: BPS DURATION NUMBER_OF_FRAMES NUMBER_OF_BYTES
  Stream #0:1(eng): Audio: aac (LC), 48000 Hz, stereo, fltp (default)
      Metadata:
        HANDLER_NAME    : SoundHandler
        VENDOR_ID       : [0][0][0][0]
        ENCODER         : Lavc61.19.100 aac
        BPS             : 193029
        DURATION        : 00:23:59.213000000
        NUMBER_OF_FRAMES: 67464
        NUMBER_OF_BYTES : 34726278
        _STATISTICS_WRITING_APP: mkvpropedit v66.0.0 ('Josie') 64-bit
        _STATISTICS_WRITING_DATE_UTC: 2025-07-06 11:15:00
        _STATISTICS_TAGS: BPS DURATION NUMBER_OF_FRAMES NUMBER_OF_BYTES
Input #1, mov,mp4,m4a,3gp,3g2,mj2, from 'G:\Аниме\Онгоинги\!_37_Зима_2025\JamClub\Голубая шкатулка\JamClub_Ao_no_Hako_23_1080p.mp4':
  Metadata:
    major_brand     : isom
    minor_version   : 512
    compatible_brands: isomiso2avc1mp41
    encoder         : Lavf60.16.100
  Duration: 00:23:59.23, start: 0.000000, bitrate: 4634 kb/s
  Stream #1:0[0x1](und): Video: h264 (High) (avc1 / 0x31637661), yuv420p(progressive), 1920x1080 [SAR 1:1 DAR 16:9], 4436 kb/s, 23.98 fps, 23.98 tbr, 90k tbn (default)
      Metadata:
        handler_name    : VideoHandler
        vendor_id       : [0][0][0][0]
  Stream #1:1[0x2](eng): Audio: aac (LC) (mp4a / 0x6134706D), 48000 Hz, stereo, fltp, 191 kb/s (default)
      Metadata:
        handler_name    : SoundHandler
        vendor_id       : [0][0][0][0]
Stream mapping:
  Stream #0:0 (hevc) -> settb:default
  Stream #1:0 (h264) -> settb:default
  ssim:default -> Stream #0:0 (wrapped_avframe)
  Stream #0:1 -> #0:1 (aac (native) -> pcm_s16le (native))
Output #0, null, to 'pipe:':
  Metadata:
    COMPATIBLE_BRANDS: isomiso2avc1mp41
    MAJOR_BRAND     : isom
    MINOR_VERSION   : 512
    encoder         : Lavf61.7.100
  Stream #0:0: Video: wrapped_avframe, yuv420p10le(tv, bt709, progressive), 1920x1080 [SAR 1:1 DAR 16:9], q=2-31, 200 kb/s, 23.98 fps, 23.98 tbn
      Metadata:
        encoder         : Lavc61.19.100 wrapped_avframe
  Stream #0:1(eng): Audio: pcm_s16le, 48000 Hz, stereo, s16, 1536 kb/s (default)
      Metadata:
        HANDLER_NAME    : SoundHandler
        VENDOR_ID       : [0][0][0][0]
        _STATISTICS_TAGS: BPS DURATION NUMBER_OF_FRAMES NUMBER_OF_BYTES
        BPS             : 193029
        DURATION        : 00:23:59.213000000
        NUMBER_OF_FRAMES: 67464
        NUMBER_OF_BYTES : 34726278
        _STATISTICS_WRITING_APP: mkvpropedit v66.0.0 ('Josie') 64-bit
        _STATISTICS_WRITING_DATE_UTC: 2025-07-06 11:15:00
        encoder         : Lavc61.19.100 pcm_s16le
frame=  103 fps=0.0 q=-0.0 size=N/A time=00:00:04.29 bitrate=N/A speed=8.39x    frame=  257 fps=251 q=-0.0 size=N/A time=00:00:10.71 bitrate=N/A speed=10.5x    frame=  455 fps=293 q=-0.0 size=N/A time=00:00:18.97 bitrate=N/A speed=12.2x    frame=  714 fps=346 q=-0.0 size=N/A time=00:00:29.77 bitrate=N/A speed=14.4x    frame=  969 fps=376 q=-0.0 size=N/A time=00:00:40.41 bitrate=N/A speed=15.7x    frame= 1216 fps=394 q=-0.0 size=N/A time=00:00:50.71 bitrate=N/A speed=16.4x    frame= 1504 fps=416 q=-0.0 size=N/A time=00:01:02.72 bitrate=N/A speed=17.4x    frame= 1761 fps=427 q=-0.0 size=N/A time=00:01:13.44 bitrate=N/A speed=17.8x    frame= 1981 fps=427 q=-0.0 size=N/A time=00:01:22.62 bitrate=N/A speed=17.8x    frame= 2215 fps=430 q=-0.0 size=N/A time=00:01:32.38 bitrate=N/A speed=17.9x    frame= 2471 fps=436 q=-0.0 size=N/A time=00:01:43.06 bitrate=N/A speed=18.2x    frame= 2711 fps=438 q=-0.0 size=N/A time=00:01:53.07 bitrate=N/A speed=18.3x    frame= 2965 fps=443 q=-0.0 size=N/A time=00:02:03.66 bitrate=N/A speed=18.5x    frame= 3181 fps=441 q=-0.0 size=N/A time=00:02:12.67 bitrate=N/A speed=18.4x    frame= 3424 fps=443 q=-0.0 size=N/A time=00:02:22.80 bitrate=N/A speed=18.5x    frame= 3667 fps=445 q=-0.0 size=N/A time=00:02:32.94 bitrate=N/A speed=18.5x    frame= 3891 fps=444 q=-0.0 size=N/A time=00:02:42.28 bitrate=N/A speed=18.5x    frame= 4111 fps=443 q=-0.0 size=N/A time=00:02:51.46 bitrate=N/A speed=18.5x    frame= 4330 fps=442 q=-0.0 size=N/A time=00:03:00.59 bitrate=N/A speed=18.4x    frame= 4580 fps=444 q=-0.0 size=N/A time=00:03:11.02 bitrate=N/A speed=18.5x    frame= 4766 fps=440 q=-0.0 size=N/A time=00:03:18.78 bitrate=N/A speed=18.4x    frame= 5001 fps=441 q=-0.0 size=N/A time=00:03:28.58 bitrate=N/A speed=18.4x    frame= 5236 fps=442 q=-0.0 size=N/A time=00:03:38.38 bitrate=N/A speed=18.4x    frame= 5471 fps=442 q=-0.0 size=N/A time=00:03:48.18 bitrate=N/A speed=18.4x    frame= 5691 fps=442 q=-0.0 size=N/A time=00:03:57.36 bitrate=N/A speed=18.4x    frame= 5935 fps=443 q=-0.0 size=N/A time=00:04:07.53 bitrate=N/A speed=18.5x    frame= 6162 fps=443 q=-0.0 size=N/A time=00:04:17.00 bitrate=N/A speed=18.5x    frame= 6362 fps=441 q=-0.0 size=N/A time=00:04:25.34 bitrate=N/A speed=18.4x    frame= 6569 fps=440 q=-0.0 size=N/A time=00:04:33.98 bitrate=N/A speed=18.3x    frame= 6803 fps=440 q=-0.0 size=N/A time=00:04:43.74 bitrate=N/A speed=18.3x    frame= 7064 fps=442 q=-0.0 size=N/A time=00:04:54.62 bitrate=N/A speed=18.4x    frame= 7282 fps=442 q=-0.0 size=N/A time=00:05:03.72 bitrate=N/A speed=18.4x    frame= 7532 fps=443 q=-0.0 size=N/A time=00:05:14.14 bitrate=N/A speed=18.5x    frame= 7775 fps=443 q=-0.0 size=N/A time=00:05:24.28 bitrate=N/A speed=18.5x    frame= 7953 fps=441 q=-0.0 size=N/A time=00:05:31.70 bitrate=N/A speed=18.4x    frame= 8157 fps=440 q=-0.0 size=N/A time=00:05:40.21 bitrate=N/A speed=18.3x    frame= 8371 fps=439 q=-0.0 size=N/A time=00:05:49.14 bitrate=N/A speed=18.3x    frame= 8589 fps=438 q=-0.0 size=N/A time=00:05:58.23 bitrate=N/A speed=18.3x    frame= 8756 fps=436 q=-0.0 size=N/A time=00:06:05.19 bitrate=N/A speed=18.2x    frame= 9004 fps=437 q=-0.0 size=N/A time=00:06:15.54 bitrate=N/A speed=18.2x    frame= 9256 fps=438 q=-0.0 size=N/A time=00:06:26.05 bitrate=N/A speed=18.3x    frame= 9525 fps=440 q=-0.0 size=N/A time=00:06:37.27 bitrate=N/A speed=18.3x    frame= 9765 fps=441 q=-0.0 size=N/A time=00:06:47.28 bitrate=N/A speed=18.4x    frame=10008 fps=441 q=-0.0 size=N/A time=00:06:57.41 bitrate=N/A speed=18.4x    frame=10280 fps=443 q=-0.0 size=N/A time=00:07:08.76 bitrate=N/A speed=18.5x    frame=10539 fps=444 q=-0.0 size=N/A time=00:07:19.56 bitrate=N/A speed=18.5x    frame=10772 fps=445 q=-0.0 size=N/A time=00:07:29.28 bitrate=N/A speed=18.5x    frame=11017 fps=445 q=-0.0 size=N/A time=00:07:39.50 bitrate=N/A speed=18.6x    frame=11291 fps=447 q=-0.0 size=N/A time=00:07:50.92 bitrate=N/A speed=18.6x    frame=11560 fps=448 q=-0.0 size=N/A time=00:08:02.14 bitrate=N/A speed=18.7x    frame=11814 fps=449 q=-0.0 size=N/A time=00:08:12.74 bitrate=N/A speed=18.7x    frame=12083 fps=451 q=-0.0 size=N/A time=00:08:23.96 bitrate=N/A speed=18.8x    frame=12321 fps=451 q=-0.0 size=N/A time=00:08:33.88 bitrate=N/A speed=18.8x    frame=12576 fps=452 q=-0.0 size=N/A time=00:08:44.52 bitrate=N/A speed=18.8x    frame=12831 fps=453 q=-0.0 size=N/A time=00:08:55.15 bitrate=N/A speed=18.9x    frame=13081 fps=453 q=-0.0 size=N/A time=00:09:05.58 bitrate=N/A speed=18.9x    frame=13329 fps=454 q=-0.0 size=N/A time=00:09:15.93 bitrate=N/A speed=18.9x    frame=13597 fps=455 q=-0.0 size=N/A time=00:09:27.10 bitrate=N/A speed=  19x    frame=13854 fps=456 q=-0.0 size=N/A time=00:09:37.82 bitrate=N/A speed=  19x    frame=14094 fps=456 q=-0.0 size=N/A time=00:09:47.83 bitrate=N/A speed=  19x    frame=14324 fps=455 q=-0.0 size=N/A time=00:09:57.43 bitrate=N/A speed=  19x    frame=14515 fps=454 q=-0.0 size=N/A time=00:10:05.39 bitrate=N/A speed=18.9x    frame=14759 fps=454 q=-0.0 size=N/A time=00:10:15.57 bitrate=N/A speed=  19x    frame=15007 fps=455 q=-0.0 size=N/A time=00:10:25.91 bitrate=N/A speed=  19x    frame=15243 fps=455 q=-0.0 size=N/A time=00:10:35.76 bitrate=N/A speed=  19x    frame=15469 fps=455 q=-0.0 size=N/A time=00:10:45.18 bitrate=N/A speed=  19x    frame=15739 fps=456 q=-0.0 size=N/A time=00:10:56.44 bitrate=N/A speed=  19x    frame=15999 fps=456 q=-0.0 size=N/A time=00:11:07.29 bitrate=N/A speed=  19x    frame=16176 fps=455 q=-0.0 size=N/A time=00:11:14.67 bitrate=N/A speed=  19x    frame=16382 fps=454 q=-0.0 size=N/A time=00:11:23.26 bitrate=N/A speed=18.9x    frame=16592 fps=453 q=-0.0 size=N/A time=00:11:32.02 bitrate=N/A speed=18.9x    frame=16840 fps=454 q=-0.0 size=N/A time=00:11:42.36 bitrate=N/A speed=18.9x    frame=17088 fps=454 q=-0.0 size=N/A time=00:11:52.71 bitrate=N/A speed=18.9x    frame=17345 fps=455 q=-0.0 size=N/A time=00:12:03.43 bitrate=N/A speed=  19x    frame=17583 fps=455 q=-0.0 size=N/A time=00:12:13.35 bitrate=N/A speed=  19x    frame=17799 fps=454 q=-0.0 size=N/A time=00:12:22.36 bitrate=N/A speed=18.9x    frame=18055 fps=455 q=-0.0 size=N/A time=00:12:33.04 bitrate=N/A speed=  19x    frame=18318 fps=456 q=-0.0 size=N/A time=00:12:44.01 bitrate=N/A speed=  19x    frame=18573 fps=456 q=-0.0 size=N/A time=00:12:54.64 bitrate=N/A speed=  19x    frame=18798 fps=456 q=-0.0 size=N/A time=00:13:04.03 bitrate=N/A speed=  19x    frame=19023 fps=456 q=-0.0 size=N/A time=00:13:13.41 bitrate=N/A speed=  19x    frame=19283 fps=456 q=-0.0 size=N/A time=00:13:24.26 bitrate=N/A speed=  19x    frame=19499 fps=456 q=-0.0 size=N/A time=00:13:33.27 bitrate=N/A speed=  19x    frame=19740 fps=456 q=-0.0 size=N/A time=00:13:43.32 bitrate=N/A speed=  19x    frame=19963 fps=456 q=-0.0 size=N/A time=00:13:52.62 bitrate=N/A speed=  19x    frame=20220 fps=456 q=-0.0 size=N/A time=00:14:03.34 bitrate=N/A speed=  19x    frame=20455 fps=456 q=-0.0 size=N/A time=00:14:13.14 bitrate=N/A speed=  19x    frame=20700 fps=456 q=-0.0 size=N/A time=00:14:23.36 bitrate=N/A speed=  19x    frame=20948 fps=457 q=-0.0 size=N/A time=00:14:33.70 bitrate=N/A speed=  19x    frame=21200 fps=457 q=-0.0 size=N/A time=00:14:44.21 bitrate=N/A speed=19.1x    frame=21444 fps=457 q=-0.0 size=N/A time=00:14:54.39 bitrate=N/A speed=19.1x    frame=21704 fps=458 q=-0.0 size=N/A time=00:15:05.23 bitrate=N/A speed=19.1x    frame=21979 fps=458 q=-0.0 size=N/A time=00:15:16.70 bitrate=N/A speed=19.1x    frame=22245 fps=459 q=-0.0 size=N/A time=00:15:27.80 bitrate=N/A speed=19.1x    frame=22493 fps=459 q=-0.0 size=N/A time=00:15:38.14 bitrate=N/A speed=19.2x    frame=22749 fps=460 q=-0.0 size=N/A time=00:15:48.82 bitrate=N/A speed=19.2x    frame=23023 fps=460 q=-0.0 size=N/A time=00:16:00.25 bitrate=N/A speed=19.2x    frame=23266 fps=460 q=-0.0 size=N/A time=00:16:10.38 bitrate=N/A speed=19.2x    frame=23534 fps=461 q=-0.0 size=N/A time=00:16:21.56 bitrate=N/A speed=19.2x    frame=23809 fps=462 q=-0.0 size=N/A time=00:16:33.03 bitrate=N/A speed=19.3x    frame=24089 fps=463 q=-0.0 size=N/A time=00:16:44.71 bitrate=N/A speed=19.3x    frame=24344 fps=463 q=-0.0 size=N/A time=00:16:55.34 bitrate=N/A speed=19.3x    frame=24598 fps=463 q=-0.0 size=N/A time=00:17:05.94 bitrate=N/A speed=19.3x    frame=24861 fps=464 q=-0.0 size=N/A time=00:17:16.91 bitrate=N/A speed=19.3x    frame=25142 fps=464 q=-0.0 size=N/A time=00:17:28.63 bitrate=N/A speed=19.4x    frame=25396 fps=465 q=-0.0 size=N/A time=00:17:39.22 bitrate=N/A speed=19.4x    frame=25639 fps=465 q=-0.0 size=N/A time=00:17:49.35 bitrate=N/A speed=19.4x    frame=25871 fps=465 q=-0.0 size=N/A time=00:17:59.03 bitrate=N/A speed=19.4x    frame=26136 fps=465 q=-0.0 size=N/A time=00:18:10.08 bitrate=N/A speed=19.4x    frame=26345 fps=465 q=-0.0 size=N/A time=00:18:18.80 bitrate=N/A speed=19.4x    frame=26595 fps=465 q=-0.0 size=N/A time=00:18:29.23 bitrate=N/A speed=19.4x    frame=26851 fps=465 q=-0.0 size=N/A time=00:18:39.91 bitrate=N/A speed=19.4x    frame=27105 fps=465 q=-0.0 size=N/A time=00:18:50.50 bitrate=N/A speed=19.4x    frame=27365 fps=466 q=-0.0 size=N/A time=00:19:01.34 bitrate=N/A speed=19.4x    frame=27600 fps=466 q=-0.0 size=N/A time=00:19:11.15 bitrate=N/A speed=19.4x    frame=27850 fps=466 q=-0.0 size=N/A time=00:19:21.57 bitrate=N/A speed=19.4x    frame=28066 fps=465 q=-0.0 size=N/A time=00:19:30.58 bitrate=N/A speed=19.4x    frame=28275 fps=465 q=-0.0 size=N/A time=00:19:39.30 bitrate=N/A speed=19.4x    frame=28539 fps=465 q=-0.0 size=N/A time=00:19:50.31 bitrate=N/A speed=19.4x    frame=28802 fps=465 q=-0.0 size=N/A time=00:20:01.28 bitrate=N/A speed=19.4x    frame=29030 fps=465 q=-0.0 size=N/A time=00:20:10.79 bitrate=N/A speed=19.4x    frame=29287 fps=466 q=-0.0 size=N/A time=00:20:21.51 bitrate=N/A speed=19.4x    frame=29534 fps=466 q=-0.0 size=N/A time=00:20:31.81 bitrate=N/A speed=19.4x    frame=29782 fps=466 q=-0.0 size=N/A time=00:20:42.15 bitrate=N/A speed=19.4x    frame=30043 fps=466 q=-0.0 size=N/A time=00:20:53.04 bitrate=N/A speed=19.4x    frame=30275 fps=466 q=-0.0 size=N/A time=00:21:02.71 bitrate=N/A speed=19.4x    frame=30503 fps=466 q=-0.0 size=N/A time=00:21:12.22 bitrate=N/A speed=19.4x    frame=30704 fps=465 q=-0.0 size=N/A time=00:21:20.61 bitrate=N/A speed=19.4x    frame=30914 fps=465 q=-0.0 size=N/A time=00:21:29.37 bitrate=N/A speed=19.4x    frame=31173 fps=465 q=-0.0 size=N/A time=00:21:40.17 bitrate=N/A speed=19.4x    frame=31437 fps=465 q=-0.0 size=N/A time=00:21:51.18 bitrate=N/A speed=19.4x    frame=31683 fps=466 q=-0.0 size=N/A time=00:22:01.44 bitrate=N/A speed=19.4x    frame=31939 fps=466 q=-0.0 size=N/A time=00:22:12.12 bitrate=N/A speed=19.4x    frame=32181 fps=466 q=-0.0 size=N/A time=00:22:22.21 bitrate=N/A speed=19.4x    frame=32411 fps=466 q=-0.0 size=N/A time=00:22:31.80 bitrate=N/A speed=19.4x    frame=32644 fps=466 q=-0.0 size=N/A time=00:22:41.52 bitrate=N/A speed=19.4x    frame=32858 fps=465 q=-0.0 size=N/A time=00:22:50.45 bitrate=N/A speed=19.4x    frame=33071 fps=465 q=-0.0 size=N/A time=00:22:59.33 bitrate=N/A speed=19.4x    frame=33256 fps=464 q=-0.0 size=N/A time=00:23:07.05 bitrate=N/A speed=19.4x    frame=33484 fps=464 q=-0.0 size=N/A time=00:23:16.56 bitrate=N/A speed=19.3x    frame=33698 fps=464 q=-0.0 size=N/A time=00:23:25.48 bitrate=N/A speed=19.3x    frame=33886 fps=463 q=-0.0 size=N/A time=00:23:33.32 bitrate=N/A speed=19.3x    frame=34098 fps=462 q=-0.0 size=N/A time=00:23:42.17 bitrate=N/A speed=19.3x    frame=34336 fps=462 q=-0.0 size=N/A time=00:23:52.09 bitrate=N/A speed=19.3x    [Parsed_ssim_10 @ 000001f3f73c8f40] SSIM Y:0.993588 (21.930012) U:0.993821 (22.090539) V:0.993827 (22.095170) All:0.993667 (21.983617)
[out#0/null @ 000001f3f6b24ac0] video:14827KiB audio:269856KiB subtitle:0KiB other streams:0KiB global headers:0KiB muxing overhead: unknown
frame=34506 fps=463 q=-0.0 Lsize=N/A time=00:23:59.18 bitrate=N/A speed=19.3x    
